<svg width="47" height="45" viewBox="0 0 47 45" fill="none" xmlns="http://www.w3.org/2000/svg">
<rect x="0.763184" y="0.427734" width="45.2632" height="44" rx="22" fill="#805AD5"/>
<path d="M33.5 15.4804H28.4474V12.9541C28.4474 11.5519 27.3232 10.4277 25.9211 10.4277H20.8684C19.4663 10.4277 18.3421 11.5519 18.3421 12.9541V15.4804H13.2895C11.8874 15.4804 10.7758 16.6046 10.7758 18.0067L10.7632 31.9014C10.7632 33.3035 11.8874 34.4277 13.2895 34.4277H33.5C34.9021 34.4277 36.0263 33.3035 36.0263 31.9014V18.0067C36.0263 16.6046 34.9021 15.4804 33.5 15.4804ZM25.9211 15.4804H20.8684V12.9541H25.9211V15.4804Z" fill="#FAF5FF"/>
</svg>
